{"title":"Necessary Evil-AC3-5,1-DVDRip[Eng]2009","uid":5040409,"size":1310473037,"categoryP":"video","categoryS":"movies","magnet":"?xt=urn:btih:e7722ec1e2acfb45e43bffe4ed7472a83f803e79&amp;dn=Necessary+Evil-AC3-5%2C1-DVDRip%5BEng%5D2009&amp;tr=udp%3A%2F%2Ftracker.openbittorrent.com%3A80&amp;tr=udp%3A%2F%2Fopen.demonii.com%3A1337&amp;tr=udp%3A%2F%2Ftracker.coppersurfer.tk%3A6969&amp;tr=udp%3A%2F%2Fexodus.desync.com%3A6969","seeders":0,"leechers":0,"uploader":"FatFreddy31","files":-1,"time":1249344067,"description":" &lt;a href=&quot;http://www.imdb.com/title/tt1084733/&quot; rel=&quot;nofollow&quot; target=&quot;_NEW&quot;&gt;http://www.imdb.com/title/tt1084733/&lt;/a&gt;\n &lt;a href=&quot;\nhttp://www.necessaryevilmovie.com/&quot; rel=&quot;nofollow&quot; target=&quot;_NEW&quot;&gt;\nhttp://www.necessaryevilmovie.com/&lt;/a&gt;\n\nUser Rating:3.5/10 - 111 votes\n\nDirector:Peter J. Eaton\n\nCast:Donald Agnelli/Greg Collins/Drue Delio/James DuMont, and others.\n\nPlot:\nDeborah Fielding, seeker of the truth, will stop at nothing to uncover the layers of corruption that lie deep within the walls of Edgewater Psychiatric Institute, even if the cost is her life. In a series of twisted events, this budding investigative journalist unlocks a Pandora's Box of deceit. As she confronts uncertainties, authorities and demons from her past, she realizes they have been dwelling closer than she thought. She finds that her seemingly perfect life is nothing more than a perfect lie.....\n\n\nInfo:\n\nGeneral\nComplete name                    : Necessary Evil-AC3-5,1-DVDRip[Eng]2009Necessary Evil-AC3-5,1-DVDRip[Eng]2009.avi\nFormat                           : AVI\nFormat/Info                      : Audio Video Interleave\nFile size                        : 1.22 GiB\nDuration                         : 1h 26mn\nOverall bit rate                 : 2 014 Kbps\nWriting application              : VirtualDubMod 1.5.4.1 (build 2178/release)\nWriting library                  : VirtualDubMod build 2178/release\n\nVideo\nFormat                           : MPEG-4 Visual\nFormat profile                   : Simple@L3\nFormat settings, BVOP            : No\nFormat settings, QPel            : No\nFormat settings, GMC             : No warppoints\nFormat settings, Matrix          : Default\nCodec ID                         : XVID\nCodec ID/Hint                    : XviD\nDuration                         : 1h 26mn\nBit rate                         : 1 557 Kbps\nWidth                            : 592 pixels\nHeight                           : 336 pixels\nDisplay aspect ratio             : 16/9\nFrame rate                       : 23.976 fps\nResolution                       : 24 bits\nColorimetry                      : 4:2:0\nScan type                        : Progressive\nBits/(Pixel*Frame)               : 0.326\nStream size                      : 966 MiB (77%)\nWriting library                  : XviD 1.1.2 (UTC 2006-11-01)\n\nAudio\nFormat                           : AC-3\nFormat/Info                      : Audio Coding 3\nCodec ID                         : 2000\nDuration                         : 1h 26mn\nBit rate mode                    : Constant\nBit rate                         : 448 Kbps\nChannel(s)                       : 6 channels\nChannel positions                : Front: L C R, Surround: L R, LFE\nSampling rate                    : 48.0 KHz\nStream size                      : 278 MiB (22%)\nAlignment                        : Split accross interleaves\nInterleave, duration             : 42 ms (1.00 video frame)\nInterleave, preload duration     : 500 ms\n\nEnjoy....","torrent":{"xt":"urn:btih:e7722ec1e2acfb45e43bffe4ed7472a83f803e79","amp;dn":"Necessary+Evil-AC3-5%2C1-DVDRip%5BEng%5D2009","amp;tr":["udp%3A%2F%2Ftracker.openbittorrent.com%3A80","udp%3A%2F%2Fopen.demonii.com%3A1337","udp%3A%2F%2Ftracker.coppersurfer.tk%3A6969","udp%3A%2F%2Fexodus.desync.com%3A6969"],"infoHash":"e7722ec1e2acfb45e43bffe4ed7472a83f803e79","infoHashBuffer":{"type":"Buffer","data":[231,114,46,193,226,172,251,69,228,59,255,228,237,116,114,168,63,128,62,121]},"announce":[],"urlList":[]}}